<svg id="visual" viewBox="0 0 900 600" width="900" height="600" xmlns="http://www.w3.org/2000/svg" xmlns:xlink="http://www.w3.org/1999/xlink" version="1.1"><rect x="0" y="0" width="900" height="600" fill="#ffffff"></rect><defs><linearGradient id="grad1_0" x1="33.3%" y1="0%" x2="100%" y2="100%"><stop offset="20%" stop-color="#ffd700" stop-opacity="1"></stop><stop offset="80%" stop-color="#ffd700" stop-opacity="1"></stop></linearGradient></defs><defs><linearGradient id="grad1_1" x1="33.3%" y1="0%" x2="100%" y2="100%"><stop offset="20%" stop-color="#ffd700" stop-opacity="1"></stop><stop offset="80%" stop-color="#ffdd4c" stop-opacity="1"></stop></linearGradient></defs><defs><linearGradient id="grad1_2" x1="33.3%" y1="0%" x2="100%" y2="100%"><stop offset="20%" stop-color="#ffe474" stop-opacity="1"></stop><stop offset="80%" stop-color="#ffdd4c" stop-opacity="1"></stop></linearGradient></defs><defs><linearGradient id="grad1_3" x1="33.3%" y1="0%" x2="100%" y2="100%"><stop offset="20%" stop-color="#ffe474" stop-opacity="1"></stop><stop offset="80%" stop-color="#ffea98" stop-opacity="1"></stop></linearGradient></defs><defs><linearGradient id="grad1_4" x1="33.3%" y1="0%" x2="100%" y2="100%"><stop offset="20%" stop-color="#fff1ba" stop-opacity="1"></stop><stop offset="80%" stop-color="#ffea98" stop-opacity="1"></stop></linearGradient></defs><defs><linearGradient id="grad1_5" x1="33.3%" y1="0%" x2="100%" y2="100%"><stop offset="20%" stop-color="#fff1ba" stop-opacity="1"></stop><stop offset="80%" stop-color="#fff8dd" stop-opacity="1"></stop></linearGradient></defs><defs><linearGradient id="grad1_6" x1="33.3%" y1="0%" x2="100%" y2="100%"><stop offset="20%" stop-color="#ffffff" stop-opacity="1"></stop><stop offset="80%" stop-color="#fff8dd" stop-opacity="1"></stop></linearGradient></defs><defs><linearGradient id="grad2_0" x1="0%" y1="0%" x2="66.7%" y2="100%"><stop offset="20%" stop-color="#ffd700" stop-opacity="1"></stop><stop offset="80%" stop-color="#ffd700" stop-opacity="1"></stop></linearGradient></defs><defs><linearGradient id="grad2_1" x1="0%" y1="0%" x2="66.7%" y2="100%"><stop offset="20%" stop-color="#ffdd4c" stop-opacity="1"></stop><stop offset="80%" stop-color="#ffd700" stop-opacity="1"></stop></linearGradient></defs><defs><linearGradient id="grad2_2" x1="0%" y1="0%" x2="66.7%" y2="100%"><stop offset="20%" stop-color="#ffdd4c" stop-opacity="1"></stop><stop offset="80%" stop-color="#ffe474" stop-opacity="1"></stop></linearGradient></defs><defs><linearGradient id="grad2_3" x1="0%" y1="0%" x2="66.7%" y2="100%"><stop offset="20%" stop-color="#ffea98" stop-opacity="1"></stop><stop offset="80%" stop-color="#ffe474" stop-opacity="1"></stop></linearGradient></defs><defs><linearGradient id="grad2_4" x1="0%" y1="0%" x2="66.7%" y2="100%"><stop offset="20%" stop-color="#ffea98" stop-opacity="1"></stop><stop offset="80%" stop-color="#fff1ba" stop-opacity="1"></stop></linearGradient></defs><defs><linearGradient id="grad2_5" x1="0%" y1="0%" x2="66.7%" y2="100%"><stop offset="20%" stop-color="#fff8dd" stop-opacity="1"></stop><stop offset="80%" stop-color="#fff1ba" stop-opacity="1"></stop></linearGradient></defs><defs><linearGradient id="grad2_6" x1="0%" y1="0%" x2="66.7%" y2="100%"><stop offset="20%" stop-color="#fff8dd" stop-opacity="1"></stop><stop offset="80%" stop-color="#ffffff" stop-opacity="1"></stop></linearGradient></defs><g transform="translate(900, 0)"><path d="M0 324.5C-57 316.2 -114 307.8 -162.2 281C-210.4 254.2 -249.8 208.9 -275.4 159C-301 109.1 -312.7 54.5 -324.5 0L0 0Z" fill="#fffbee"></path><path d="M0 278.1C-48.9 271 -97.8 263.9 -139.1 240.9C-180.4 217.9 -214.1 179.1 -236.1 136.3C-258 93.5 -268.1 46.7 -278.1 0L0 0Z" fill="#fff4cc"></path><path d="M0 231.8C-40.7 225.8 -81.5 219.9 -115.9 200.7C-150.3 181.6 -178.4 149.2 -196.7 113.6C-215 77.9 -223.4 39 -231.8 0L0 0Z" fill="#ffeea9"></path><path d="M0 185.4C-32.6 180.7 -65.2 175.9 -92.7 160.6C-120.3 145.3 -142.8 119.4 -157.4 90.9C-172 62.3 -178.7 31.2 -185.4 0L0 0Z" fill="#ffe786"></path><path d="M0 139.1C-24.4 135.5 -48.9 131.9 -69.5 120.4C-90.2 108.9 -107.1 89.5 -118 68.1C-129 46.7 -134 23.4 -139.1 0L0 0Z" fill="#ffe061"></path><path d="M0 92.7C-16.3 90.3 -32.6 88 -46.4 80.3C-60.1 72.6 -71.4 59.7 -78.7 45.4C-86 31.2 -89.4 15.6 -92.7 0L0 0Z" fill="#ffda32"></path><path d="M0 46.4C-8.1 45.2 -16.3 44 -23.2 40.1C-30.1 36.3 -35.7 29.8 -39.3 22.7C-43 15.6 -44.7 7.8 -46.4 0L0 0Z" fill="#ffd700"></path></g><g transform="translate(0, 600)"><path d="M0 -324.5C51.9 -308.1 103.7 -291.7 154 -266.7C204.3 -241.7 252.9 -208.1 281 -162.2C309.2 -116.4 316.8 -58.2 324.5 0L0 0Z" fill="#fffbee"></path><path d="M0 -278.1C44.5 -264.1 88.9 -250.1 132 -228.6C175.1 -207.2 216.8 -178.4 240.9 -139.1C265 -99.7 271.6 -49.9 278.1 0L0 0Z" fill="#fff4cc"></path><path d="M0 -231.8C37.1 -220.1 74.1 -208.4 110 -190.5C145.9 -172.7 180.6 -148.7 200.7 -115.9C220.8 -83.1 226.3 -41.6 231.8 0L0 0Z" fill="#ffeea9"></path><path d="M0 -185.4C29.6 -176.1 59.3 -166.7 88 -152.4C116.7 -138.1 144.5 -118.9 160.6 -92.7C176.7 -66.5 181 -33.2 185.4 0L0 0Z" fill="#ffe786"></path><path d="M0 -139.1C22.2 -132 44.5 -125 66 -114.3C87.5 -103.6 108.4 -89.2 120.4 -69.5C132.5 -49.9 135.8 -24.9 139.1 0L0 0Z" fill="#ffe061"></path><path d="M0 -92.7C14.8 -88 29.6 -83.4 44 -76.2C58.4 -69.1 72.3 -59.5 80.3 -46.4C88.3 -33.2 90.5 -16.6 92.7 0L0 0Z" fill="#ffda32"></path><path d="M0 -46.4C7.4 -44 14.8 -41.7 22 -38.1C29.2 -34.5 36.1 -29.7 40.1 -23.2C44.2 -16.6 45.3 -8.3 46.4 0L0 0Z" fill="#ffd700"></path></g></svg>